<svg width="896" height="1394" viewBox="0 0 896 1394" fill="none" xmlns="http://www.w3.org/2000/svg">
<circle cx="202" cy="683" r="202" fill="url(#paint0_linear_410_4689)" style="mix-blend-mode:soft-light"/>
<circle cx="202" cy="683" r="202" fill="url(#paint1_linear_410_4689)" style="mix-blend-mode:soft-light"/>
<circle cx="202" cy="202" r="202" transform="matrix(-1 0 0 1 896 0)" fill="url(#paint2_linear_410_4689)" style="mix-blend-mode:soft-light"/>
<circle cx="202" cy="202" r="202" transform="matrix(-1 0 0 1 896 0)" fill="url(#paint3_linear_410_4689)" style="mix-blend-mode:soft-light"/>
<circle cx="202" cy="202" r="202" transform="matrix(1 0 0 -1 0 1394)" fill="url(#paint4_linear_410_4689)" style="mix-blend-mode:soft-light"/>
<circle cx="202" cy="202" r="202" transform="matrix(1 0 0 -1 0 1394)" fill="url(#paint5_linear_410_4689)" style="mix-blend-mode:soft-light"/>
<circle cx="202" cy="202" r="202" transform="rotate(180 202 202)" fill="url(#paint6_linear_410_4689)" style="mix-blend-mode:soft-light"/>
<circle cx="202" cy="202" r="202" transform="rotate(180 202 202)" fill="url(#paint7_linear_410_4689)" style="mix-blend-mode:soft-light"/>
<defs>
<linearGradient id="paint0_linear_410_4689" x1="202" y1="481" x2="202" y2="885" gradientUnits="userSpaceOnUse">
<stop/>
<stop offset="1" stop-color="#D9D9D9" stop-opacity="0"/>
</linearGradient>
<linearGradient id="paint1_linear_410_4689" x1="202" y1="481" x2="202" y2="885" gradientUnits="userSpaceOnUse">
<stop/>
<stop offset="1" stop-color="#D9D9D9" stop-opacity="0"/>
</linearGradient>
<linearGradient id="paint2_linear_410_4689" x1="202" y1="0" x2="202" y2="404" gradientUnits="userSpaceOnUse">
<stop/>
<stop offset="1" stop-color="#D9D9D9" stop-opacity="0"/>
</linearGradient>
<linearGradient id="paint3_linear_410_4689" x1="202" y1="0" x2="202" y2="404" gradientUnits="userSpaceOnUse">
<stop/>
<stop offset="1" stop-color="#D9D9D9" stop-opacity="0"/>
</linearGradient>
<linearGradient id="paint4_linear_410_4689" x1="202" y1="0" x2="202" y2="404" gradientUnits="userSpaceOnUse">
<stop/>
<stop offset="1" stop-color="#D9D9D9" stop-opacity="0"/>
</linearGradient>
<linearGradient id="paint5_linear_410_4689" x1="202" y1="0" x2="202" y2="404" gradientUnits="userSpaceOnUse">
<stop/>
<stop offset="1" stop-color="#D9D9D9" stop-opacity="0"/>
</linearGradient>
<linearGradient id="paint6_linear_410_4689" x1="202" y1="0" x2="202" y2="404" gradientUnits="userSpaceOnUse">
<stop/>
<stop offset="1" stop-color="#D9D9D9" stop-opacity="0"/>
</linearGradient>
<linearGradient id="paint7_linear_410_4689" x1="202" y1="0" x2="202" y2="404" gradientUnits="userSpaceOnUse">
<stop/>
<stop offset="1" stop-color="#D9D9D9" stop-opacity="0"/>
</linearGradient>
</defs>
</svg>
