<svg width="27" height="20" viewBox="0 0 27 20" fill="none" xmlns="http://www.w3.org/2000/svg">
<path d="M22.9613 1.67368C21.2291 0.878947 19.3967 0.315789 17.517 0C17.2591 0.457895 17.0274 0.931579 16.8168 1.41579C14.8107 1.11579 12.7783 1.11579 10.7723 1.41579C10.5669 0.931579 10.33 0.457895 10.072 0C8.19228 0.321053 6.35997 0.884211 4.62243 1.67895C1.17896 6.77895 0.247006 11.7474 0.710349 16.6474C2.72694 18.1368 4.98574 19.2737 7.39196 20C7.93428 19.2737 8.41342 18.5 8.82411 17.6947C8.04485 17.4053 7.29192 17.0421 6.57058 16.6211C6.76013 16.4842 6.94441 16.3421 7.12343 16.2053C11.3514 18.1947 16.2481 18.1947 20.4761 16.2053C20.6551 16.3526 20.8394 16.4947 21.029 16.6211C20.3076 17.0474 19.5547 17.4053 18.7702 17.7C19.1809 18.5053 19.66 19.2789 20.2023 20.0053C22.6086 19.2789 24.8673 18.1474 26.8839 16.6526C27.4315 10.9684 25.9467 6.04211 22.9613 1.67895M9.41382 13.6368C8.1133 13.6368 7.03392 12.4579 7.03392 11.0053C7.03392 9.55263 8.07118 8.36316 9.40855 8.36316C10.7459 8.36316 11.8095 9.55263 11.7884 11.0053C11.7674 12.4579 10.7407 13.6368 9.41382 13.6368ZM18.1857 13.6368C16.88 13.6368 15.8111 12.4579 15.8111 11.0053C15.8111 9.55263 16.8484 8.36316 18.1857 8.36316C19.5231 8.36316 20.5814 9.55263 20.5604 11.0053C20.5393 12.4579 19.5126 13.6368 18.1857 13.6368Z" fill="#B9B9B9"/>
</svg>
