<svg width="236" height="70" viewBox="0 0 236 70" fill="none" xmlns="http://www.w3.org/2000/svg">
<path d="M24.384 53H1.408L1.152 46.856L10.624 31.304H0.768V22.344H23.744L24.128 28.04L14.976 44.168H24.384V53ZM53.477 53H41.637L37.733 41.224H37.477V53H27.045V11.976H37.605V34.568H37.861L42.533 22.344H53.733L47.269 37.64L53.477 53ZM84.2215 41.544C84.2215 49.1813 80.1255 53 71.9335 53H56.2535V13.256H71.6135C75.6668 13.256 78.6748 14.088 80.6375 15.752C82.6002 17.3733 83.5815 19.976 83.5815 23.56C83.5815 27.144 82.1095 29.8747 79.1655 31.752V32.136C82.5362 33.4587 84.2215 36.5947 84.2215 41.544ZM69.3735 45.896C70.6535 45.896 71.5068 45.6187 71.9335 45.064C72.4028 44.4667 72.6375 43.272 72.6375 41.48C72.6375 39.6453 72.4028 38.3653 71.9335 37.64C71.4642 36.872 70.6108 36.488 69.3735 36.488H67.3255V45.896H69.3735ZM69.4375 30.28C70.4188 30.28 71.1015 29.9813 71.4855 29.384C71.8695 28.7867 72.0615 27.7413 72.0615 26.248C72.0615 24.712 71.8482 23.6453 71.4215 23.048C71.0375 22.408 70.3548 22.088 69.3735 22.088H67.3255V30.28H69.4375ZM116.933 53H106.437L98.181 34.504H97.669V53H87.941V13.256H98.757L106.629 32.328H107.141V13.256H116.933V53ZM150.534 41.544C150.534 49.1813 146.438 53 138.246 53H122.566V13.256H137.926C141.979 13.256 144.987 14.088 146.95 15.752C148.913 17.3733 149.894 19.976 149.894 23.56C149.894 27.144 148.422 29.8747 145.478 31.752V32.136C148.849 33.4587 150.534 36.5947 150.534 41.544ZM135.686 45.896C136.966 45.896 137.819 45.6187 138.246 45.064C138.715 44.4667 138.95 43.272 138.95 41.48C138.95 39.6453 138.715 38.3653 138.246 37.64C137.777 36.872 136.923 36.488 135.686 36.488H133.638V45.896H135.686ZM135.75 30.28C136.731 30.28 137.414 29.9813 137.798 29.384C138.182 28.7867 138.374 27.7413 138.374 26.248C138.374 24.712 138.161 23.6453 137.734 23.048C137.35 22.408 136.667 22.088 135.686 22.088H133.638V30.28H135.75Z" fill="white"/>
<path d="M149.227 55.7305C148.789 55.7305 148.406 55.7109 148.078 55.6719C147.75 55.6328 147.441 55.5391 147.152 55.3906C146.395 55.0234 146.016 54.2891 146.016 53.1875C146.016 52.6562 146.098 52.0195 146.262 51.2773C146.434 50.5352 146.676 49.7344 146.988 48.875C147.676 46.9844 148.527 45.168 149.543 43.4258C148.746 43.4727 148.113 43.5938 147.645 43.7891C147.184 43.9766 146.879 44.2695 146.73 44.668C146.801 44.668 146.871 44.75 146.941 44.9141C147.012 45.0781 147.047 45.2461 147.047 45.418C147.047 45.6992 146.918 45.9258 146.66 46.0977C146.402 46.2695 146.082 46.3555 145.699 46.3555C145.27 46.3555 144.918 46.2383 144.645 46.0039C144.355 45.7617 144.211 45.4141 144.211 44.9609C144.211 44.5625 144.332 44.1836 144.574 43.8242C144.816 43.457 145.16 43.1406 145.605 42.875C146.059 42.6016 146.582 42.3906 147.176 42.2422C147.777 42.0859 148.422 42.0078 149.109 42.0078C149.445 42.0078 149.863 42.0312 150.363 42.0781C151.707 39.9609 153.051 38.3008 154.395 37.0977C155.957 35.6992 157.395 35 158.707 35C159.488 35 160.121 35.1133 160.605 35.3398L156.844 53H153.387L155.227 44.293C154.648 44.0273 154.105 43.8281 153.598 43.6953C153.098 43.5625 152.57 43.4727 152.016 43.4258C151.109 45.3867 150.367 47.3906 149.789 49.4375C149.195 51.4922 148.898 53.1445 148.898 54.3945C148.898 55.0117 149.008 55.457 149.227 55.7305ZM156.844 36.6992C156.148 37.0742 155.418 37.7812 154.652 38.8203C153.902 39.8516 153.191 41.043 152.52 42.3945C153.613 42.6055 154.59 42.8828 155.449 43.2266L156.844 36.6992ZM168.691 53.1406C167.699 53.1406 166.965 52.8594 166.488 52.2969C166.074 51.8125 165.867 51.1914 165.867 50.4336C165.867 50.0742 165.91 49.6562 165.996 49.1797C166.09 48.7031 166.227 48.0898 166.406 47.3398C166.586 46.5742 166.719 45.9648 166.805 45.5117C166.898 45.0508 166.945 44.6523 166.945 44.3164C166.945 43.4961 166.656 43.0859 166.078 43.0859C165.672 43.0859 165.297 43.3008 164.953 43.7305C164.664 44.0977 164.414 44.6211 164.203 45.3008L162.574 53H159.117L161.66 41H165.117L164.859 42.2422C165.328 41.7188 165.832 41.3516 166.371 41.1406C166.77 40.9844 167.199 40.9062 167.66 40.9062C168.473 40.9062 169.113 41.1172 169.582 41.5391C170.082 42 170.332 42.6914 170.332 43.6133C170.332 44.168 170.23 44.8906 170.027 45.7812C169.973 46.0391 169.883 46.4258 169.758 46.9414C169.531 47.8086 169.367 48.5 169.266 49.0156C169.203 49.3438 169.172 49.6094 169.172 49.8125C169.172 50.1328 169.242 50.3828 169.383 50.5625C169.531 50.7344 169.781 50.8203 170.133 50.8203C170.609 50.8203 171.012 50.625 171.34 50.2344C171.59 49.9375 171.859 49.4258 172.148 48.6992H173.156C172.562 50.457 171.812 51.6875 170.906 52.3906C170.266 52.8906 169.527 53.1406 168.691 53.1406ZM175.031 53.1406C174.117 53.1406 173.379 52.8555 172.816 52.2852C172.16 51.6133 171.832 50.6133 171.832 49.2852C171.832 48.7227 171.891 48.1289 172.008 47.5039C172.117 46.8789 172.281 46.2617 172.5 45.6523C173 44.2773 173.684 43.168 174.551 42.3242C175.551 41.3633 176.703 40.8828 178.008 40.8828C178.656 40.8828 179.141 40.9961 179.461 41.2227C179.789 41.4414 179.953 41.7344 179.953 42.1016V42.2773L180.211 41H183.668L181.945 49.1562C181.875 49.3906 181.84 49.6484 181.84 49.9297C181.84 50.6172 182.168 50.9609 182.824 50.9609C183.262 50.9609 183.66 50.7383 184.02 50.293C184.324 49.918 184.574 49.3867 184.77 48.6992H185.777C185.348 49.918 184.828 50.8828 184.219 51.5938C183.703 52.1797 183.121 52.6016 182.473 52.8594C181.996 53.0469 181.492 53.1406 180.961 53.1406C180.281 53.1406 179.738 52.957 179.332 52.5898C178.934 52.2148 178.691 51.6641 178.605 50.9375C178.152 51.5781 177.676 52.0781 177.176 52.4375C176.535 52.9062 175.82 53.1406 175.031 53.1406ZM176.59 50.8203C176.77 50.8203 176.957 50.7734 177.152 50.6797C177.355 50.5859 177.551 50.4531 177.738 50.2812C178.16 49.875 178.441 49.3477 178.582 48.6992L179.73 43.2852C179.73 43.207 179.711 43.1172 179.672 43.0156C179.641 42.9062 179.594 42.8047 179.531 42.7109C179.344 42.4844 179.082 42.3711 178.746 42.3711C178.426 42.3711 178.113 42.4766 177.809 42.6875C177.512 42.8984 177.23 43.1914 176.965 43.5664C176.496 44.2461 176.109 45.1328 175.805 46.2266C175.664 46.7109 175.559 47.1914 175.488 47.668C175.418 48.1367 175.383 48.5625 175.383 48.9453C175.383 49.7422 175.531 50.2812 175.828 50.5625C175.93 50.6719 176.043 50.7422 176.168 50.7734C176.293 50.8047 176.434 50.8203 176.59 50.8203ZM187.16 53.1406C186.395 53.1406 185.789 52.9141 185.344 52.4609C184.844 51.9609 184.594 51.2305 184.594 50.2695C184.594 49.8164 184.656 49.293 184.781 48.6992L187.348 36.6758L190.898 36.1953L188.145 49.1562C188.082 49.3594 188.051 49.6172 188.051 49.9297C188.051 50.2578 188.125 50.4883 188.273 50.6211C188.43 50.7539 188.68 50.8203 189.023 50.8203C189.258 50.8203 189.484 50.7695 189.703 50.668C189.93 50.5586 190.137 50.4102 190.324 50.2227C190.707 49.8398 190.996 49.332 191.191 48.6992H192.199C191.77 49.9102 191.23 50.875 190.582 51.5938C190.035 52.1797 189.418 52.6016 188.73 52.8594C188.23 53.0469 187.707 53.1406 187.16 53.1406ZM194.941 59C194.566 59 194.215 58.9492 193.887 58.8477C193.566 58.7539 193.289 58.6094 193.055 58.4141C192.805 58.2188 192.609 57.9727 192.469 57.6758C192.328 57.3867 192.258 57.0508 192.258 56.668C192.258 55.7617 192.684 54.9844 193.535 54.3359C194.176 53.8594 195.055 53.4453 196.172 53.0938L196.465 51.8047C195.996 52.3203 195.488 52.6836 194.941 52.8945C194.52 53.0586 194.066 53.1406 193.582 53.1406C192.816 53.1406 192.211 52.9141 191.766 52.4609C191.266 51.9609 191.016 51.2305 191.016 50.2695C191.016 49.8164 191.078 49.293 191.203 48.6992L192.832 41H196.289L194.566 49.1562C194.52 49.3516 194.496 49.5547 194.496 49.7656C194.496 50.0703 194.547 50.3125 194.648 50.4922C194.766 50.7109 194.953 50.8203 195.211 50.8203C195.633 50.8203 196.012 50.6328 196.348 50.2578C196.637 49.9375 196.883 49.4688 197.086 48.8516L198.762 41H202.219L199.84 52.1328C200.598 51.8828 201.203 51.5078 201.656 51.0078C202.148 50.4688 202.551 49.6992 202.863 48.6992H203.871C203.441 50.1211 202.801 51.2188 201.949 51.9922C201.324 52.5547 200.551 52.9531 199.629 53.1875L199.266 54.9219C198.961 56.4531 198.352 57.5625 197.438 58.25C196.773 58.75 195.941 59 194.941 59ZM194.391 57.125C194.633 57.125 194.891 56.9492 195.164 56.5977C195.43 56.2539 195.637 55.7188 195.785 54.9922L195.926 54.3008C195.199 54.5742 194.656 54.8516 194.297 55.1328C193.82 55.4922 193.582 55.8945 193.582 56.3398C193.582 56.5508 193.648 56.7266 193.781 56.8672C193.93 57.0391 194.133 57.125 194.391 57.125ZM205.254 53.1406C204.488 53.1406 203.883 52.9141 203.438 52.4609C202.938 51.9609 202.688 51.2305 202.688 50.2695C202.688 49.8164 202.75 49.293 202.875 48.6992L204.316 41.9609H203.52L203.719 41H204.504L205.23 37.6836L208.781 37.2031L207.961 41H209.402L209.215 41.9609H207.773L206.238 49.1562C206.176 49.3594 206.145 49.6172 206.145 49.9297C206.145 50.2578 206.219 50.4883 206.367 50.6211C206.523 50.7539 206.773 50.8203 207.117 50.8203C207.352 50.8203 207.578 50.7695 207.797 50.668C208.023 50.5586 208.23 50.4102 208.418 50.2227C208.801 49.8398 209.09 49.332 209.285 48.6992H210.293C209.863 49.9102 209.324 50.875 208.676 51.5938C208.129 52.1797 207.512 52.6016 206.824 52.8594C206.324 53.0469 205.801 53.1406 205.254 53.1406ZM213.305 39.6992C213.047 39.6992 212.801 39.6523 212.566 39.5586C212.332 39.457 212.129 39.3203 211.957 39.1484C211.785 38.9844 211.648 38.7852 211.547 38.5508C211.453 38.3164 211.406 38.0703 211.406 37.8125C211.406 37.5547 211.453 37.3086 211.547 37.0742C211.648 36.8398 211.785 36.6328 211.957 36.4531C212.129 36.2734 212.332 36.1367 212.566 36.043C212.801 35.9414 213.047 35.8906 213.305 35.8906C213.562 35.8906 213.809 35.9414 214.043 36.043C214.277 36.1367 214.484 36.2734 214.664 36.4531C214.844 36.6328 214.98 36.8398 215.074 37.0742C215.176 37.3086 215.227 37.5547 215.227 37.8125C215.227 38.0703 215.176 38.3164 215.074 38.5508C214.98 38.7852 214.844 38.9844 214.664 39.1484C214.484 39.3203 214.277 39.457 214.043 39.5586C213.809 39.6523 213.562 39.6992 213.305 39.6992ZM211.676 53.1406C210.91 53.1406 210.305 52.9141 209.859 52.4609C209.359 51.9609 209.109 51.2305 209.109 50.2695C209.109 49.8164 209.172 49.293 209.297 48.6992L210.926 41H214.383L212.66 49.1562C212.598 49.3594 212.566 49.6172 212.566 49.9297C212.566 50.2578 212.641 50.4883 212.789 50.6211C212.945 50.7539 213.195 50.8203 213.539 50.8203C213.773 50.8203 214 50.7695 214.219 50.668C214.445 50.5586 214.652 50.4102 214.84 50.2227C215.223 49.8398 215.512 49.332 215.707 48.6992H216.715C216.285 49.9102 215.746 50.875 215.098 51.5938C214.551 52.1797 213.934 52.6016 213.246 52.8594C212.746 53.0469 212.223 53.1406 211.676 53.1406ZM219.152 53.1406C217.973 53.1406 217.062 52.8438 216.422 52.25C215.742 51.6172 215.402 50.6445 215.402 49.332C215.402 48.8398 215.453 48.293 215.555 47.6914C215.648 47.082 215.797 46.4766 216 45.875C216.477 44.4141 217.152 43.25 218.027 42.3828C219.105 41.3203 220.383 40.7891 221.859 40.7891C222.82 40.7891 223.531 41.0195 223.992 41.4805C224.352 41.8477 224.531 42.3516 224.531 42.9922C224.531 43.5547 224.406 43.9922 224.156 44.3047C223.922 44.5938 223.621 44.7383 223.254 44.7383C222.988 44.7383 222.707 44.6445 222.41 44.457C222.605 43.9492 222.703 43.4766 222.703 43.0391C222.703 42.7344 222.645 42.4961 222.527 42.3242C222.418 42.1445 222.254 42.0547 222.035 42.0547C221.566 42.0547 221.078 42.4688 220.57 43.2969C220.109 44.0312 219.727 44.9648 219.422 46.0977C219.109 47.207 218.953 48.2109 218.953 49.1094C218.953 49.8906 219.102 50.4297 219.398 50.7266C219.656 50.9922 220.086 51.125 220.688 51.125C221.555 51.125 222.348 50.8906 223.066 50.4219C223.371 50.2266 223.664 49.9961 223.945 49.7305C224.227 49.457 224.555 49.1133 224.93 48.6992H225.75C224.992 49.9805 224.121 51 223.137 51.7578C221.926 52.6797 220.598 53.1406 219.152 53.1406ZM227.66 53.1406C227.082 53.1406 226.57 53.0547 226.125 52.8828C225.68 52.7031 225.305 52.457 225 52.1445C224.719 51.8555 224.508 51.5352 224.367 51.1836C224.227 50.8242 224.156 50.4531 224.156 50.0703C224.156 49.5469 224.289 49.0742 224.555 48.6523C224.789 48.2773 225.082 48.0078 225.434 47.8438C226.059 46.7344 226.602 45.6094 227.062 44.4688C227.523 43.3281 227.965 42.082 228.387 40.7305L231.938 40.2617C232.031 42.293 232.117 43.8516 232.195 44.9375C232.273 46.0547 232.34 46.875 232.395 47.3984C232.441 48.0078 232.465 48.5391 232.465 48.9922C232.465 49.3984 232.434 49.7031 232.371 49.9062C233.09 49.4844 233.664 49.082 234.094 48.6992H235.102C234.531 49.3633 233.941 49.9336 233.332 50.4102C232.73 50.8867 232.098 51.3164 231.434 51.6992C230.957 52.1992 230.359 52.5703 229.641 52.8125C229.016 53.0312 228.355 53.1406 227.66 53.1406ZM226.898 51.2422C227.5 51.2422 227.98 51.0781 228.34 50.75C228.77 50.3594 228.984 49.7812 228.984 49.0156C228.984 48.6953 228.965 48.293 228.926 47.8086L228.867 47.0938C228.797 46.4766 228.727 45.7617 228.656 44.9492L228.527 43.332C228.301 44.0586 228.031 44.7812 227.719 45.5C227.406 46.2109 227.027 47 226.582 47.8672C226.949 48.0703 227.133 48.3477 227.133 48.6992C227.133 49.0117 227.039 49.2812 226.852 49.5078C226.648 49.7578 226.391 49.8828 226.078 49.8828C225.922 49.8828 225.789 49.8633 225.68 49.8242C225.578 49.7773 225.496 49.6914 225.434 49.5664C225.434 50.1445 225.547 50.5703 225.773 50.8438C226 51.1094 226.375 51.2422 226.898 51.2422Z" fill="#FF7A00"/>
</svg>
