<svg width="24" height="20" viewBox="0 0 24 20" fill="none" xmlns="http://www.w3.org/2000/svg">
<g clip-path="url(#clip0_418_4598)">
<path fill-rule="evenodd" clip-rule="evenodd" d="M23.9997 0.708642L20.2037 19.1672C20.2037 19.1672 19.6725 20.4475 18.2129 19.8331L12.8121 15.8395L12.8123 15.8394L9.46649 13.3173L9.48052 13.2019C9.48052 13.2019 19.1955 4.77944 19.5937 4.42077C19.9918 4.06209 19.8588 3.98528 19.8588 3.98528C19.8851 3.5498 19.1422 3.98528 19.1422 3.98528L6.269 11.8708L6.26936 11.872L6.26825 11.8715L0.906697 10.1303C0.906697 10.1303 0.0841084 9.84843 0.00447741 9.23399C-0.0751536 8.61955 0.933772 8.28698 0.933772 8.28698L22.2478 0.221699C22.2478 0.221699 23.9997 -0.521005 23.9997 0.707874V0.708642Z" fill="#B9B9B9"/>
</g>
<defs>
<clipPath id="clip0_418_4598">
<rect width="24" height="20" fill="white"/>
</clipPath>
</defs>
</svg>
