<svg width="24" height="20" viewBox="0 0 24 20" fill="none" xmlns="http://www.w3.org/2000/svg">
<path d="M7.54646 20C16.6031 20 21.5561 12.3061 21.5561 5.63466C21.5561 5.41661 21.5519 5.19856 21.542 4.98195C22.5039 4.27004 23.339 3.38051 23.998 2.36823C23.1165 2.76968 22.1659 3.04116 21.1702 3.16245C22.187 2.53718 22.9672 1.54801 23.3347 0.369675C22.3827 0.948737 21.3293 1.36895 20.2084 1.59567C19.3099 0.613718 18.0297 0 16.6144 0C13.895 0 11.6896 2.26137 11.6896 5.04838C11.6896 5.44404 11.7333 5.8296 11.8178 6.19928C7.72531 5.98845 4.09757 3.97978 1.66827 0.924188C1.24579 1.67076 1.00075 2.53718 1.00075 3.46137C1.00075 5.213 1.86966 6.75957 3.19204 7.66354C2.38509 7.63755 1.62602 7.41083 0.961314 7.03249C0.961314 7.05415 0.961314 7.07437 0.961314 7.09747C0.961314 9.54368 2.6583 11.5841 4.91155 12.0477C4.49752 12.1632 4.06236 12.2253 3.61312 12.2253C3.29625 12.2253 2.98784 12.1935 2.68787 12.1343C3.31456 14.1401 5.13266 15.6 7.28733 15.6404C5.60161 16.9949 3.47933 17.8022 1.17256 17.8022C0.775421 17.8022 0.383917 17.7791 -0.00195312 17.7329C2.17666 19.1653 4.76509 20 7.54505 20" fill="#B9B9B9"/>
</svg>
